<?xml version="1.0" encoding="UTF-8"?>
<svg width="181px" height="26px" viewBox="0 0 181 26" version="1.1" xmlns="http://www.w3.org/2000/svg" xmlns:xlink="http://www.w3.org/1999/xlink">
    <!-- Generator: Sketch 57.1 (83088) - https://sketch.com -->
    <title>logo-ea</title>
    <desc>Created with Sketch.</desc>
    <defs>
        <path d="M13.3714297,25.0862969 L11.6946261,20.0240983 L11.6628383,20.0240983 L9.98603471,25.0862969 L13.3714297,25.0862969 Z M13.8720867,26.6438965 L9.47743077,26.6438965 L8.58737386,29.2345979 L6.72779069,29.2345979 L10.9396671,17.6479642 L12.4098504,17.6479642 L16.6217268,29.2345979 L14.7700906,29.2345979 L13.8720867,26.6438965 Z M25.379251,25.9922477 C25.1249478,27.0677385 24.6401895,27.8942117 23.9249616,28.471692 C23.1885418,29.0438743 22.3170364,29.3299611 21.3104194,29.3299611 C20.3991661,29.3087692 19.6389168,29.0862572 19.0296486,28.6624184 C18.4097845,28.2544736 17.9594626,27.7829601 17.6786694,27.2478637 C17.5939016,27.0730302 17.517082,26.9061462 17.4482082,26.7472067 C17.3846324,26.5829692 17.3316534,26.3763509 17.2892695,26.1273456 C17.2097997,25.661123 17.1700654,24.7657771 17.1700654,23.4412811 C17.1700654,22.0955931 17.2097997,21.1949492 17.2892695,20.7393226 C17.3740372,20.283696 17.5038359,19.9154916 17.6786694,19.6346984 C17.9594626,19.099602 18.4097845,18.6227906 19.0296486,18.2042498 C19.6389168,17.7804111 20.3991661,17.563197 21.3104194,17.552601 C22.4282941,17.563197 23.3395337,17.894316 24.0441656,18.5459681 C24.7487975,19.2029181 25.1938215,20.0161465 25.379251,20.9856776 L23.5196678,20.9856776 C23.3766222,20.519455 23.1170249,20.1221122 22.740868,19.7936371 C22.3488172,19.4810561 21.8720058,19.31947 21.3104194,19.308874 C20.8971767,19.31947 20.542217,19.4015875 20.2455299,19.555229 C19.9435448,19.7141686 19.6998412,19.91284 19.5144118,20.1512493 C19.2865984,20.4002545 19.1356081,20.7207778 19.0614364,21.1128286 C18.9766686,21.5260714 18.9342854,22.3022144 18.9342854,23.4412811 C18.9342854,24.5803477 18.9766686,25.3511928 19.0614364,25.7538396 C19.1356081,26.1564864 19.2865984,26.4823076 19.5144118,26.7313128 C19.6998412,26.9697221 19.9435448,27.1630956 20.2455299,27.3114392 C20.542217,27.4862727 20.8971767,27.5736881 21.3104194,27.5736881 C22.2958445,27.5736881 23.0322533,27.0465466 23.5196678,25.9922477 L25.379251,25.9922477 Z M34.4308118,25.9922477 C34.1765086,27.0677385 33.6917503,27.8942117 32.9765224,28.471692 C32.2401026,29.0438743 31.3685973,29.3299611 30.3619803,29.3299611 C29.450727,29.3087692 28.6904776,29.0862572 28.0812095,28.6624184 C27.4613453,28.2544736 27.0110234,27.7829601 26.7302302,27.2478637 C26.6454625,27.0730302 26.5686429,26.9061462 26.4997691,26.7472067 C26.4361933,26.5829692 26.3832142,26.3763509 26.3408303,26.1273456 C26.2613606,25.661123 26.2216263,24.7657771 26.2216263,23.4412811 C26.2216263,22.0955931 26.2613606,21.1949492 26.3408303,20.7393226 C26.4255981,20.283696 26.5553967,19.9154916 26.7302302,19.6346984 C27.0110234,19.099602 27.4613453,18.6227906 28.0812095,18.2042498 C28.6904776,17.7804111 29.450727,17.563197 30.3619803,17.552601 C31.479855,17.563197 32.3910946,17.894316 33.0957265,18.5459681 C33.8003584,19.2029181 34.2453824,20.0161465 34.4308118,20.9856776 L32.5712287,20.9856776 C32.4281831,20.519455 32.1685858,20.1221122 31.7924289,19.7936371 C31.400378,19.4810561 30.9235666,19.31947 30.3619803,19.308874 C29.9487375,19.31947 29.5937779,19.4015875 29.2970908,19.555229 C28.9951057,19.7141686 28.751402,19.91284 28.5659726,20.1512493 C28.3381593,20.4002545 28.187169,20.7207778 28.1129972,21.1128286 C28.0282295,21.5260714 27.9858462,22.3022144 27.9858462,23.4412811 C27.9858462,24.5803477 28.0282295,25.3511928 28.1129972,25.7538396 C28.187169,26.1564864 28.3381593,26.4823076 28.5659726,26.7313128 C28.751402,26.9697221 28.9951057,27.1630956 29.2970908,27.3114392 C29.5937779,27.4862727 29.9487375,27.5736881 30.3619803,27.5736881 C31.3474053,27.5736881 32.0838141,27.0465466 32.5712287,25.9922477 L34.4308118,25.9922477 Z M35.670534,17.6479642 L43.069132,17.6479642 L43.069132,19.308874 L37.426807,19.308874 L37.426807,22.6147996 L42.2426506,22.6147996 L42.2426506,24.1723992 L37.426807,24.1723992 L37.426807,27.5736881 L43.069132,27.5736881 L43.069132,29.2345979 L35.670534,29.2345979 L35.670534,17.6479642 Z M44.8651397,26.4213823 C45.7869889,27.1789941 46.8836552,27.5630921 48.1551714,27.5736881 C49.659799,27.5524962 50.4226972,27.0147588 50.4438892,25.96046 C50.4544851,25.0968885 49.9511842,24.5776939 48.9339712,24.4028604 C48.4677486,24.3392846 47.9565008,24.2677629 47.4002124,24.1882931 C46.4041914,24.0240556 45.646591,23.6558512 45.1273886,23.0836689 C44.5922922,22.4955927 44.324748,21.7803755 44.324748,20.937996 C44.324748,19.926081 44.6611649,19.1102037 45.3340089,18.4903395 C45.985661,17.8757734 46.9101454,17.563197 48.1074898,17.552601 C49.5485415,17.5843889 50.801496,17.9843807 51.8663908,18.7525884 L50.8889176,20.1989309 C50.0200482,19.6267486 49.0637764,19.3300659 48.0200735,19.308874 C47.4796791,19.308874 47.0293572,19.4439706 46.6690943,19.7141678 C46.2929374,19.9949609 46.0995639,20.4134954 46.0889679,20.9697838 C46.0889679,21.3035568 46.2187666,21.6055373 46.4783678,21.8757345 C46.737969,22.1512297 47.1538545,22.3419543 47.7260368,22.447914 C48.0439159,22.5008938 48.4783441,22.5618197 49.0293345,22.6306935 C50.1154212,22.7790371 50.9180538,23.1684331 51.4372563,23.7988932 C51.9511607,24.4187574 52.2081091,25.1392724 52.2081091,25.96046 C52.1498313,28.1750174 50.7935677,29.2981732 48.1392776,29.3299611 C46.4227307,29.3299611 44.9472642,28.8001706 43.7128338,27.7405738 L44.8651397,26.4213823 Z M54.2027902,26.4213823 C55.1246395,27.1789941 56.2213058,27.5630921 57.492822,27.5736881 C58.9974495,27.5524962 59.7603478,27.0147588 59.7815397,25.96046 C59.7921357,25.0968885 59.2888348,24.5776939 58.2716218,24.4028604 C57.8053992,24.3392846 57.2941513,24.2677629 56.737863,24.1882931 C55.741842,24.0240556 54.9842416,23.6558512 54.4650391,23.0836689 C53.9299427,22.4955927 53.6623985,21.7803755 53.6623985,20.937996 C53.6623985,19.926081 53.9988155,19.1102037 54.6716595,18.4903395 C55.3233115,17.8757734 56.2477959,17.563197 57.4451404,17.552601 C58.8861921,17.5843889 60.1391466,17.9843807 61.2040414,18.7525884 L60.2265682,20.1989309 C59.3576988,19.6267486 58.401427,19.3300659 57.3577241,19.308874 C56.8173297,19.308874 56.3670078,19.4439706 56.0067448,19.7141678 C55.6305879,19.9949609 55.4372144,20.4134954 55.4266185,20.9697838 C55.4266185,21.3035568 55.5564171,21.6055373 55.8160184,21.8757345 C56.0756196,22.1512297 56.4915051,22.3419543 57.0636874,22.447914 C57.3815665,22.5008938 57.8159947,22.5618197 58.366985,22.6306935 C59.4530718,22.7790371 60.2557044,23.1684331 60.7749068,23.7988932 C61.2888113,24.4187574 61.5457597,25.1392724 61.5457597,25.96046 C61.4874818,28.1750174 60.1312182,29.2981732 57.4769281,29.3299611 C55.7603812,29.3299611 54.2849147,28.8001706 53.0504844,27.7405738 L54.2027902,26.4213823 Z M63.3973959,17.6479642 L65.1536689,17.6479642 L65.1536689,29.2345979 L63.3973959,29.2345979 L63.3973959,17.6479642 Z M67.5933785,17.6479642 L72.0833977,17.6479642 C73.2224643,17.6585602 74.0780759,17.9446471 74.6502582,18.5062334 C75.2277385,19.0731177 75.5164743,19.8227712 75.5164743,20.7552165 C75.5270703,21.2320351 75.4131653,21.6876549 75.174756,22.1220896 C75.0529024,22.328711 74.8780715,22.5247334 74.6502582,22.7101629 C74.4224449,22.9061883 74.1416559,23.0836681 73.8078829,23.2426076 L73.8078829,23.2743954 C74.438343,23.4386329 74.9151545,23.769752 75.2383315,24.2677625 C75.5403166,24.7816669 75.6913069,25.3405959 75.6913069,25.9445661 C75.6807109,26.9458851 75.3681346,27.7379219 74.7535684,28.3207002 C74.1443002,28.9299684 73.3840509,29.2345979 72.4727976,29.2345979 L67.5933785,29.2345979 L67.5933785,17.6479642 Z M69.3496515,24.0929299 L69.3496515,27.5736881 L72.0516099,27.5736881 C72.703262,27.5630921 73.1800734,27.3856123 73.4820585,27.0412434 C73.7840436,26.7021724 73.9350339,26.2995316 73.9350339,25.833309 C73.9350339,25.3564904 73.7840436,24.9485517 73.4820585,24.6094807 C73.1800734,24.2757077 72.703262,24.1035258 72.0516099,24.0929299 L69.3496515,24.0929299 Z M69.3496515,19.2135108 L69.3496515,22.5273833 L71.8847243,22.5273833 C72.5257803,22.5273833 72.9972939,22.3604993 73.299279,22.0267263 C73.6065621,21.7194433 73.7602013,21.3326962 73.7602013,20.8664736 C73.7602013,20.400251 73.6065621,20.0055571 73.299279,19.68238 C72.9972939,19.3803949 72.5257803,19.2241067 71.8847243,19.2135108 L69.3496515,19.2135108 Z M77.5191023,17.6479642 L79.2753753,17.6479642 L79.2753753,29.2345979 L77.5191023,29.2345979 L77.5191023,17.6479642 Z M81.7150849,17.6479642 L83.4713579,17.6479642 L83.4713579,27.5736881 L89.1136829,27.5736881 L89.1136829,29.2345979 L81.7150849,29.2345979 L81.7150849,17.6479642 Z M90.7666457,17.6479642 L92.5229187,17.6479642 L92.5229187,29.2345979 L90.7666457,29.2345979 L90.7666457,17.6479642 Z M96.9255216,19.2135108 L93.7546939,19.2135108 L93.7546939,17.6479642 L101.860569,17.6479642 L101.860569,19.2135108 L98.6897416,19.2135108 L98.6897416,29.2345979 L96.9255216,29.2345979 L96.9255216,19.2135108 Z M105.118813,24.4664359 L101.630108,17.6479642 L103.489691,17.6479642 L105.945295,22.7896323 L108.400898,17.6479642 L110.260481,17.6479642 L106.771776,24.4664359 L106.771776,29.2345979 L105.118813,29.2345979 L105.118813,24.4664359 Z M109.33069,27.5736881 L110.991599,27.5736881 L110.991599,29.2345979 L109.33069,29.2345979 L109.33069,27.5736881 Z" id="path-1"></path>
        <path d="M8.89872374,12.0891768 C9.50697146,12.5890586 10.2305656,12.8424913 11.069528,12.8494827 C12.0623002,12.8355 12.56567,12.4806941 12.5796527,11.7850545 C12.5866441,11.2152592 12.2545598,10.872688 11.5833899,10.7573307 C11.2757704,10.7153826 10.9384426,10.6681917 10.5713966,10.6157565 C9.91420941,10.5073905 9.41433517,10.2644447 9.07175886,9.8869116 C8.71869553,9.49889151 8.54216652,9.02698225 8.54216652,8.47116968 C8.54216652,7.80349546 8.76413865,7.26516935 9.20808957,6.85617519 C9.63805778,6.45067672 10.2480442,6.24443489 11.0380671,6.23744354 C11.9888911,6.2584176 12.8156062,6.52233722 13.5182372,7.02921032 L12.8732881,7.98352524 C12.2999971,7.60599218 11.669037,7.41023723 10.9803887,7.39625452 C10.6238297,7.39625452 10.3267017,7.48539293 10.0889957,7.66367244 C9.84080262,7.84894329 9.71321234,8.1250976 9.70622098,8.49214364 C9.70622098,8.71237126 9.79186378,8.91162183 9.96315193,9.08990134 C10.1344401,9.27167652 10.4088466,9.39751898 10.7863796,9.46743251 C10.9961202,9.50238928 11.2827614,9.54258896 11.6463118,9.58803275 C12.3629255,9.6859117 12.8925125,9.94284007 13.2350888,10.3588256 C13.5741694,10.7678197 13.7437072,11.2432246 13.7437072,11.7850545 C13.7052548,13.2462473 12.810375,13.9873196 11.059041,14.0082936 C9.92644184,14.0082936 8.95291053,13.6587312 8.13841789,12.9595959 L8.89872374,12.0891768 Z M15.0598228,12.0891768 C15.6680706,12.5890586 16.3916647,12.8424913 17.2306271,12.8494827 C18.2233993,12.8355 18.7267691,12.4806941 18.7407518,11.7850545 C18.7477432,11.2152592 18.4156589,10.872688 17.744489,10.7573307 C17.4368695,10.7153826 17.0995417,10.6681917 16.7324957,10.6157565 C16.0753085,10.5073905 15.5754343,10.2644447 15.232858,9.8869116 C14.8797946,9.49889151 14.7032656,9.02698225 14.7032656,8.47116968 C14.7032656,7.80349546 14.9252377,7.26516935 15.3691887,6.85617519 C15.7991569,6.45067672 16.4091433,6.24443489 17.1991662,6.23744354 C18.1499902,6.2584176 18.9767053,6.52233722 19.6793363,7.02921032 L19.0343872,7.98352524 C18.4610962,7.60599218 17.8301361,7.41023723 17.1414878,7.39625452 C16.7849288,7.39625452 16.4878008,7.48539293 16.2500948,7.66367244 C16.0019017,7.84894329 15.8743114,8.1250976 15.8673201,8.49214364 C15.8673201,8.71237126 15.9529629,8.91162183 16.124251,9.08990134 C16.2955392,9.27167652 16.5699457,9.39751898 16.9474787,9.46743251 C17.1572193,9.50238928 17.4438605,9.54258896 17.8074109,9.58803275 C18.5240246,9.6859117 19.0536116,9.94284007 19.3961879,10.3588256 C19.7352685,10.7678197 19.9048063,11.2432246 19.9048063,11.7850545 C19.8663539,13.2462473 18.9714741,13.9873196 17.2201401,14.0082936 C16.0875409,14.0082936 15.1140096,13.6587312 14.299517,12.9595959 L15.0598228,12.0891768 Z M21.1265391,6.3003654 L26.008227,6.3003654 L26.008227,7.39625452 L22.2853501,7.39625452 L22.2853501,9.57754578 L25.4629042,9.57754578 L25.4629042,10.6052695 L22.2853501,10.6052695 L22.2853501,12.8494827 L26.008227,12.8494827 L26.008227,13.9453718 L21.1265391,13.9453718 L21.1265391,6.3003654 Z M27.0988727,6.3003654 L28.1895183,6.3003654 L31.6502208,11.7326196 L31.6711947,11.7326196 L31.6711947,6.3003654 L32.8300057,6.3003654 L32.8300057,13.9453718 L31.7341166,13.9453718 L28.2786576,8.51311759 L28.2576836,8.51311759 L28.2576836,13.9453718 L27.0988727,13.9453718 L27.0988727,6.3003654 Z M35.7401419,7.33333266 L33.6479899,7.33333266 L33.6479899,6.3003654 L38.9963483,6.3003654 L38.9963483,7.33333266 L36.9041963,7.33333266 L36.9041963,13.9453718 L35.7401419,13.9453718 L35.7401419,7.33333266 Z M39.8143325,6.3003654 L40.9731435,6.3003654 L40.9731435,13.9453718 L39.8143325,13.9453718 L39.8143325,6.3003654 Z M46.1694407,11.2082707 L45.0630646,7.86816849 L45.0420906,7.86816849 L43.9357145,11.2082707 L46.1694407,11.2082707 Z M46.4997805,12.2359945 L43.6001313,12.2359945 L43.0128605,13.9453718 L41.7858842,13.9453718 L44.5649332,6.3003654 L45.5349786,6.3003654 L48.3140275,13.9453718 L47.0922947,13.9453718 L46.4997805,12.2359945 Z M49.1320117,6.3003654 L50.2908227,6.3003654 L50.2908227,12.8494827 L54.0136996,12.8494827 L54.0136996,13.9453718 L49.1320117,13.9453718 L49.1320117,6.3003654 Z" id="path-2"></path>
        <path d="M2.09137034,10.8593756 C2.09137034,11.4541938 2.26267542,11.9062488 2.6052907,12.2155543 C2.92411326,12.5296183 3.34285899,12.686648 3.86154046,12.686648 C4.46587576,12.686648 5.00596259,12.446345 5.48181715,11.9657319 L6.55962234,12.8865059 C5.80301359,13.6954586 4.9131789,14.0951705 3.8900916,14.0856534 C3.49989085,14.0856534 3.11921291,14.0285517 2.74804636,13.9143466 C2.56246308,13.8524855 2.38164106,13.7692122 2.20557487,13.6645242 C2.01999159,13.5741118 1.84630728,13.4622877 1.68451673,13.3290484 C1.37045272,13.0530528 1.11587434,12.6676164 0.920773974,12.1727276 C0.706639421,11.6968731 0.59957375,11.0782714 0.59957375,10.3169041 C0.59957375,9.58408808 0.692363998,8.97500338 0.877947277,8.48963172 C1.06353056,7.99474298 1.30145427,7.60454809 1.59172555,7.31903535 C1.88675538,7.02876407 2.21746934,6.8193912 2.58387735,6.69091047 C2.94552682,6.56242974 3.30241239,6.49819034 3.65454476,6.49819034 C4.50156589,6.50770743 5.21771626,6.78607817 5.80301737,7.33331092 C6.39783557,7.89006076 6.69999869,8.65617511 6.70951578,9.63167696 L6.70951578,10.8593756 L2.09137034,10.8593756 Z M5.21771919,9.63167696 C5.198685,9.05589294 5.04403459,8.62049255 4.75376331,8.32546272 C4.46825057,8.04470853 4.10184805,7.90433354 3.65454476,7.90433354 C3.20724148,7.90433354 2.84083896,8.04470853 2.55532622,8.32546272 C2.27457203,8.62049255 2.11992162,9.05589294 2.09137034,9.63167696 L5.21771919,9.63167696 Z" id="path-3"></path>
    </defs>
    <g id="Page-1" stroke="none" stroke-width="1" fill="none" fill-rule="evenodd">
        <g id="logo-ea" transform="translate(0.000000, -5.000000)" fill-rule="nonzero">
            <g id="ACCESSIBILITY.">
                <use fill="#000000" xlink:href="#path-1"></use>
                <use fill="#FFFFFF" xlink:href="#path-1"></use>
            </g>
            <g id="SSENTIAL">
                <use fill="#000000" xlink:href="#path-2"></use>
                <use fill="#FFFFFF" xlink:href="#path-2"></use>
            </g>
            <g id="e">
                <use fill="#000000" xlink:href="#path-3"></use>
                <use fill="#FFFFFF" xlink:href="#path-3"></use>
            </g>
            <g id="handicapped" transform="translate(113.018209, 5.159332)">
                <path d="M22.4195267,0 C28.7585766,0 33.8349966,5.62266667 33.9873723,12.5764571 L33.9908953,12.8983308 L33.9908953,12.8983308 C33.9908953,19.999659 28.7837794,25.7966616 22.4195267,25.7966616 L11.5713686,25.7966616 C5.13479482,25.7966616 0,19.999659 0,12.8983308 C0,5.79700261 5.20711588,0 11.5713686,0 L22.4195267,0 Z M56.3609717,0 C59.5566969,0 62.4619016,1.44925065 64.568175,3.7680517 C66.6744485,6.08685274 67.9817906,9.34766671 67.9817906,12.8983308 C67.9817906,16.4489949 66.6744485,19.7098089 64.568175,22.0286099 C62.4619016,24.347411 59.5566969,25.7966616 56.3609717,25.7966616 L45.6117142,25.7966616 C42.415989,25.7966616 39.5107843,24.347411 37.4045108,22.0286099 C35.2982374,19.7098089 33.9908953,16.4489949 33.9908953,12.8983308 C33.9908953,9.34766671 35.2982374,6.08685274 37.4045108,3.7680517 C39.5107843,1.44925065 42.415989,0 45.6117142,0 L56.3609717,0 Z M59.0340642,16.9055246 L44.4560724,16.9055246 C44.3828162,16.9055246 44.3095599,16.9785871 44.3095599,17.0516495 L44.3095599,17.0516495 L44.3095599,22.3121452 C44.3095599,22.3852077 44.3828162,22.4582701 44.4560724,22.4582701 L44.4560724,22.4582701 L59.0340642,22.4582701 C59.1073204,22.4582701 59.1805766,22.3852077 59.1805766,22.3121452 L59.1805766,22.3121452 L59.1805766,17.0516495 C59.1805766,16.9785871 59.1073204,16.9055246 59.0340642,16.9055246 L59.0340642,16.9055246 Z M10.6665898,8.60122259 C8.77932055,9.62580807 7.40016223,11.5286097 7.03722582,13.8705194 C6.89205126,14.9682895 7.03722582,16.0660597 7.32757495,17.0174605 C8.41638415,20.6035097 12.0457482,22.6526807 15.5299376,21.5549105 C17.707556,20.8962484 19.3044762,19.1398161 19.9577617,17.0174605 C20.030349,16.8710911 20.030349,16.6515371 20.030349,16.4319831 C19.8851745,15.9196903 19.3770635,15.6269516 18.8689525,15.773321 C18.5060161,15.9196903 18.2882543,16.212429 18.215667,16.5051678 C17.707556,17.9688613 16.6187468,19.1398161 15.0944139,19.5789242 C14.4411284,19.7984782 13.7878429,19.7984782 13.1345574,19.7252936 C12.269559,19.5911217 11.343567,19.2109679 10.6920458,18.6412032 L10.5214153,18.481154 L10.448828,18.4079694 L10.2310662,18.1884153 C10.2310662,18.1335268 10.1902358,18.0786383 10.1391979,18.0237498 L10.0858916,17.9688613 L10.0133043,17.8956766 C9.65036792,17.3833839 9.28743152,16.8710911 9.14225696,16.212429 C8.9970824,15.4805823 8.92449511,14.7487355 8.9970824,14.0168887 C9.21484424,12.4068258 10.1584789,11.0895016 11.4650499,10.3576548 C11.755399,10.2844702 11.9731609,9.99173146 12.0457482,9.62580807 C12.1183355,9.11351533 11.755399,8.60122259 11.2472881,8.52803791 C11.0295262,8.45485323 10.8117644,8.52803791 10.6665898,8.60122259 Z M47.0200408,19.9010847 C47.0932971,19.9010847 47.1665533,19.9741471 47.1665533,20.0472096 L47.1665533,20.0472096 L47.1665533,21.5084584 C47.1665533,21.5815208 47.0932971,21.6545833 47.0200408,21.6545833 L47.0200408,21.6545833 L45.554916,21.6545833 C45.4816598,21.6545833 45.4084035,21.5815208 45.4084035,21.5084584 L45.4084035,21.5084584 L45.4084035,20.0472096 C45.4084035,19.9741471 45.4816598,19.9010847 45.554916,19.9010847 L45.554916,19.9010847 Z M55.1514834,19.9010847 C55.2979959,19.9010847 55.2979959,19.9741471 55.2979959,20.0472096 L55.2979959,21.5084584 C55.2979959,21.5815208 55.2247397,21.6545833 55.1514834,21.6545833 L55.1514834,21.6545833 L53.6863586,21.6545833 C53.6131024,21.6545833 53.5398462,21.5815208 53.5398462,21.5084584 L53.5398462,21.5084584 L53.5398462,20.0472096 C53.5398462,19.9741471 53.6131024,19.9010847 53.6863586,19.9010847 L53.6863586,19.9010847 Z M49.7305217,19.9010847 C49.8037779,19.9010847 49.8770342,19.9741471 49.8770342,20.0472096 L49.8770342,20.0472096 L49.8770342,21.5084584 C49.8770342,21.5815208 49.8037779,21.6545833 49.7305217,21.6545833 L49.7305217,21.6545833 L48.2653969,21.6545833 C48.1921407,21.6545833 48.1188844,21.5815208 48.1188844,21.5084584 L48.1188844,21.5084584 L48.1188844,20.0472096 C48.1188844,19.9741471 48.1921407,19.9010847 48.2653969,19.9010847 L48.2653969,19.9010847 Z M57.8619643,19.9010847 C58.0084768,19.9010847 58.081733,19.9741471 58.0084768,20.0472096 L58.0084768,20.0472096 L58.0084768,21.5084584 C58.0084768,21.5815208 57.9352206,21.6545833 57.8619643,21.6545833 L57.8619643,21.6545833 L56.3968395,21.6545833 C56.3235833,21.6545833 56.250327,21.5815208 56.250327,21.5084584 L56.250327,21.5084584 L56.250327,20.0472096 C56.250327,19.9741471 56.3235833,19.9010847 56.3968395,19.9010847 L56.3968395,19.9010847 Z M52.4410026,19.9010847 C52.5142588,19.9010847 52.587515,19.9741471 52.587515,20.0472096 L52.587515,20.0472096 L52.587515,21.5084584 C52.587515,21.5815208 52.5142588,21.6545833 52.4410026,21.6545833 L52.4410026,21.6545833 L50.9758778,21.6545833 C50.9026215,21.6545833 50.8293653,21.5815208 50.8293653,21.5084584 L50.8293653,21.5084584 L50.8293653,20.0472096 C50.8293653,19.9741471 50.9026215,19.9010847 50.9758778,19.9010847 L50.9758778,19.9010847 Z M14.5225831,6.37329287 C13.9088491,6.37329287 13.4224081,6.81583134 13.360277,7.40588263 L13.353566,7.53447252 L13.353566,14.2838293 C13.353566,14.8257131 13.7990914,15.3043771 14.3337219,15.4247958 L14.4495195,15.4450089 L20.6599229,15.4450089 L23.2902114,19.3639902 C23.3528373,19.5506084 23.522822,19.6305876 23.7081436,19.6953327 L23.8016564,19.7268589 L23.9992203,19.7262783 C24.0570866,19.7245365 24.1307347,19.7175694 24.1886011,19.6897011 L24.2400378,19.6542851 L24.386165,19.6542851 L26.2858178,18.638253 C26.6511356,18.4931055 26.7972627,17.9850894 26.6511356,17.6947945 C26.4502108,17.3621649 26.0651049,17.2124816 25.7209281,17.357545 L25.6282456,17.4044996 L24.5322921,17.9850894 L21.7558765,13.8483869 C21.624362,13.7177542 21.4336661,13.4107673 21.0239987,13.3506763 L20.8791136,13.3403708 L15.6916002,13.3403708 L15.6916002,11.671175 L19.2717151,11.671175 C19.7831601,11.671175 20.2215415,11.2357327 20.2215415,10.6551428 C20.2215415,10.1160237 19.8435494,9.70205724 19.380059,9.64566978 L19.2717151,9.63911064 L15.6916002,9.63911064 L15.6916002,7.53447252 C15.6916002,6.88130897 15.1801552,6.37329287 14.5225831,6.37329287 Z M51.1956465,17.636149 C51.2689027,17.636149 51.342159,17.7092115 51.342159,17.7822739 L51.342159,17.7822739 L51.342159,19.2435227 C51.342159,19.3165852 51.2689027,19.3896476 51.1956465,19.3896476 L51.1956465,19.3896476 L49.7305217,19.3896476 C49.6572654,19.3896476 49.5840092,19.3165852 49.5840092,19.2435227 L49.5840092,19.2435227 L49.5840092,17.7822739 C49.5840092,17.7092115 49.6572654,17.636149 49.7305217,17.636149 L49.7305217,17.636149 Z M48.4851656,17.636149 C48.5584219,17.636149 48.6316781,17.7092115 48.6316781,17.7822739 L48.6316781,17.7822739 L48.6316781,19.2435227 C48.6316781,19.3165852 48.5584219,19.3896476 48.4851656,19.3896476 L48.4851656,19.3896476 L47.0200408,19.3896476 C46.9467846,19.3896476 46.8735283,19.3165852 46.8735283,19.2435227 L46.8735283,19.2435227 L46.8735283,17.7822739 C46.8735283,17.7092115 46.9467846,17.636149 47.0200408,17.636149 L47.0200408,17.636149 Z M53.9061274,17.636149 C53.9793836,17.636149 54.0526398,17.7092115 54.0526398,17.7822739 L54.0526398,17.7822739 L54.0526398,19.2435227 C54.0526398,19.3165852 53.9793836,19.3896476 53.9061274,19.3896476 L53.9061274,19.3896476 L52.4410026,19.3896476 C52.3677463,19.3896476 52.2944901,19.3165852 52.2944901,19.2435227 L52.2944901,19.2435227 L52.2944901,17.7822739 C52.2944901,17.7092115 52.3677463,17.636149 52.4410026,17.636149 L52.4410026,17.636149 Z M56.6166082,17.636149 C56.6898645,17.636149 56.7631207,17.7092115 56.7631207,17.7822739 L56.7631207,17.7822739 L56.7631207,19.2435227 C56.7631207,19.3165852 56.6898645,19.3896476 56.6166082,19.3896476 L56.6166082,19.3896476 L55.1514834,19.3896476 C55.0782272,19.3896476 55.004971,19.3165852 55.004971,19.2435227 L55.004971,19.2435227 L55.004971,17.7822739 C55.004971,17.7092115 55.0782272,17.636149 55.1514834,17.636149 L55.1514834,17.636149 Z M58.7410392,2.73141123 L44.8223536,2.73141123 C44.7490974,2.73141123 44.6758411,2.80447367 44.6758411,2.87753611 L44.6758411,15.9557129 C44.6758411,16.0287754 44.7490974,16.1018378 44.8223536,16.1018378 L58.7410392,16.1018378 C58.8142954,16.1018378 58.8875517,16.0287754 58.8875517,15.9557129 L58.8875517,2.87753611 C58.8875517,2.80447367 58.8142954,2.73141123 58.7410392,2.73141123 Z M56.9096332,4.70409712 C56.9828894,4.70409712 57.0561457,4.77715956 57.0561457,4.850222 L57.0561457,13.6907773 C57.0561457,13.7638397 56.9828894,13.8369022 56.9096332,13.8369022 L46.6537596,13.8369022 C46.5805034,13.7638397 46.5072471,13.6907773 46.5072471,13.6177148 L46.5072471,4.850222 C46.5072471,4.77715956 46.5805034,4.70409712 46.6537596,4.70409712 L56.9096332,4.70409712 Z M14.4157815,1.21396055 C13.472323,1.21396055 12.7465857,1.97268589 12.7465857,2.8831563 C12.7465857,3.79362671 13.472323,4.55235205 14.4157815,4.55235205 C15.35924,4.55235205 16.0849772,3.79362671 16.0849772,2.8831563 C16.0849772,1.97268589 15.35924,1.21396055 14.4157815,1.21396055 Z" id="Combined-Shape" fill="#FFFFFF"></path>
                <path d="M41.5781487,12.2913505 C41.5781487,14.3324705 40.7762802,16.2277961 39.3912345,17.5399447 C38.0061888,18.9249903 36.1837603,19.7268589 34.1426404,19.7268589 C32.1015204,19.7268589 30.2061948,18.9249903 28.8940462,17.5399447 C27.5090006,16.154899 26.707132,14.3324705 26.707132,12.2913505 C26.707132,10.2502306 27.5090006,8.35490494 28.8940462,7.0427564 C30.2790919,5.65771073 32.1015204,4.85584219 34.1426404,4.85584219 C36.1837603,4.85584219 38.079086,5.65771073 39.3912345,7.0427564 C40.7762802,8.42780208 41.5781487,10.2502306 41.5781487,12.2913505 Z" id="Path" fill="#000000"></path>
                <polygon id="Path" fill="#FFFFFF" points="38.5432473 12.4794417 32.4734446 18.5128983 32.4734446 6.37329287"></polygon>
            </g>
        </g>
    </g>
</svg>