<?xml version="1.0" encoding="UTF-8"?>
<svg width="104px" height="45px" viewBox="0 0 104 45" version="1.1" xmlns="http://www.w3.org/2000/svg" xmlns:xlink="http://www.w3.org/1999/xlink">
    <!-- Generator: Sketch 57.1 (83088) - https://sketch.com -->
    <title>frog logo</title>
    <desc>Created with Sketch.</desc>
    <defs>
        <path d="M3.28723491,12.2292284 L3.28723491,18.5414144 C3.97334552,17.8298923 4.75092588,17.4741366 5.61999931,17.4741366 C6.62121257,17.4741366 7.4546974,17.8476801 8.12047881,18.5947783 C8.78626021,19.3367942 9.11914592,20.2617591 9.11914592,21.3697007 C9.11914592,22.5132183 8.7837191,23.4585121 8.11285539,24.2056103 C7.44707399,24.9476262 6.60596582,25.3186286 5.58950566,25.3186286 C4.73059683,25.3186286 3.96318092,24.988284 3.28723491,24.3275849 L3.28723491,25.1051731 L1.57196697,25.1051731 L1.57196697,12.2292284 L3.28723491,12.2292284 Z M7.36576091,21.4459348 C7.36576091,20.7344127 7.17263638,20.1550391 6.78638152,19.7077966 C6.39504435,19.2503895 5.90460968,19.0216894 5.31506279,19.0216894 C4.68485749,19.0216894 4.17155281,19.2427662 3.77513335,19.6849264 C3.38379619,20.1220042 3.18813054,20.6912134 3.18813054,21.3925709 C3.18813054,22.1142576 3.38125507,22.6910901 3.76750993,23.1230857 C4.1537648,23.5652458 4.66198725,23.7863226 5.29219255,23.7863226 C5.88682175,23.7863226 6.37979753,23.5652458 6.77113469,23.1230857 C7.16755415,22.6758432 7.36576091,22.1167985 7.36576091,21.4459348 Z M12.6487862,17.6799687 L12.6487862,21.9414566 C12.6487862,23.1713734 13.1341386,23.7863226 14.1048581,23.7863226 C15.0755775,23.7863226 15.56093,23.1713734 15.56093,21.9414566 L15.56093,17.6799687 L17.2761979,17.6799687 L17.2761979,21.9795737 C17.2761979,22.5742029 17.2025057,23.0875076 17.0551189,23.5195032 C16.9128145,23.905758 16.6663266,24.2538904 16.3156479,24.5639107 C15.7362656,25.0670585 14.999343,25.3186286 14.1048581,25.3186286 C13.2154554,25.3186286 12.481074,25.0670585 11.9016917,24.5639107 C11.5459306,24.2538904 11.2943605,23.905758 11.1469738,23.5195032 C11.0046694,23.1739067 10.9335182,22.660602 10.9335182,21.9795737 L10.9335182,17.6799687 L12.6487862,17.6799687 Z M21.1565152,12.2292284 L21.1565152,25.1051731 L19.4412472,25.1051731 L19.4412472,12.2292284 L21.1565152,12.2292284 Z M25.0444559,12.2292284 L25.0444559,25.1051731 L23.3291879,25.1051731 L23.3291879,12.2292284 L25.0444559,12.2292284 Z M28.9933838,19.2808855 L28.9933838,25.1051731 L27.2704925,25.1051731 L27.2704925,19.2808855 L26.6606194,19.2808855 L26.6606194,17.6799687 L27.2704925,17.6799687 L27.2704925,14.8135654 C27.2704925,13.8784221 27.4331237,13.2177329 27.7583909,12.831478 C28.2056334,12.2927541 28.8561581,12.0233962 29.7099847,12.0233962 C30.0149227,12.0233962 30.3986307,12.1123352 30.86112,12.2902157 L30.86112,14.0436007 L30.6857815,13.9521197 C30.3147736,13.7640746 30.0098401,13.6700534 29.770972,13.6700534 C29.4660339,13.6700534 29.2602038,13.7793213 29.1534755,13.9978602 C29.0467472,14.2113168 28.9933838,14.622977 28.9933838,15.2328531 L28.9933838,17.6799687 L30.86112,17.6799687 L30.86112,19.2808855 L28.9933838,19.2808855 Z M31.8521637,17.6799687 L33.5674317,17.6799687 L33.5674317,18.3432057 C33.8825343,18.0128561 34.1620567,17.7866971 34.4060071,17.6647219 C34.6550399,17.5376644 34.9498089,17.4741366 35.290323,17.4741366 C35.7426478,17.4741366 36.2152947,17.6215211 36.7082779,17.9162945 L35.9230663,19.4867176 C35.5977991,19.2529318 35.28016,19.1360406 34.9701397,19.1360406 C34.0349963,19.1360406 33.5674317,19.8424698 33.5674317,21.2553495 L33.5674317,25.1051731 L31.8521637,25.1051731 L31.8521637,17.6799687 Z M37.2037997,21.339207 C37.2037997,20.2668415 37.5875077,19.3545822 38.3549351,18.6024017 C39.1223625,17.8502212 40.0574918,17.4741366 41.1603511,17.4741366 C42.2682927,17.4741366 43.2085042,17.8527623 43.981014,18.6100251 C44.7433591,19.3672879 45.1245259,20.297335 45.1245259,21.4001943 C45.1245259,22.5132182 44.740818,23.4458064 43.9733905,24.1979869 C43.2008808,24.9450851 42.2530459,25.3186286 41.1298575,25.3186286 C40.0168336,25.3186286 39.0842454,24.9374618 38.3320649,24.1751167 C37.5798843,23.4229362 37.2037997,22.4776424 37.2037997,21.339207 Z M38.9571847,21.3697007 C38.9571847,22.1117166 39.1553915,22.6987135 39.551811,23.1307091 C39.958395,23.567787 40.4945697,23.7863226 41.1603511,23.7863226 C41.8312148,23.7863226 42.3673895,23.5703281 42.7688913,23.1383325 C43.170393,22.7063369 43.3711409,22.1295044 43.3711409,21.4078177 C43.3711409,20.686131 43.170393,20.1092985 42.7688913,19.677303 C42.3623072,19.2402251 41.8261325,19.0216894 41.1603511,19.0216894 C40.5047343,19.0216894 39.9736419,19.2402251 39.5670578,19.677303 C39.1604737,20.1143808 38.9571847,20.6785078 38.9571847,21.3697007 Z M54.1201534,24.9298346 C54.1201534,25.2805133 54.1087184,25.5892585 54.085848,25.8560793 C54.0629777,26.1229001 54.0312138,26.3579529 53.9905553,26.561245 C53.8685801,27.1202981 53.6297156,27.6005683 53.2739545,28.00207 C52.6030908,28.7745798 51.680667,29.1608288 50.5066556,29.1608288 C49.5156069,29.1608288 48.6999099,28.894012 48.05954,28.3603705 C47.3988409,27.811482 47.017674,27.0516894 46.916028,26.08097 L48.6389194,26.08097 C48.7049893,26.4468956 48.8142571,26.7289591 48.9667261,26.9271688 C49.3224872,27.3896582 49.8408741,27.6208994 50.5219024,27.6208994 C51.7772307,27.6208994 52.4048854,26.8509424 52.4048854,25.3110052 L52.4048854,24.2742211 C51.7238571,24.9704963 50.9386534,25.3186286 50.0492508,25.3186286 C49.0378729,25.3186286 48.2094703,24.9527085 47.5640181,24.2208572 C46.9134836,23.4788412 46.5882212,22.5513353 46.5882212,21.4383114 C46.5882212,20.3557813 46.8906136,19.4358987 47.4954074,18.6786358 C48.1459419,17.8756323 49.0048379,17.4741366 50.072121,17.4741366 C51.0072644,17.4741366 51.7848447,17.822269 52.4048854,18.5185442 L52.4048854,17.6799687 L54.1201534,17.6799687 L54.1201534,24.9298346 Z M52.4734961,21.4078177 C52.4734961,20.686131 52.2803716,20.1092985 51.8941167,19.677303 C51.5027796,19.2351428 51.0021805,19.014066 50.3923044,19.014066 C49.7417699,19.014066 49.2284652,19.2554717 48.8523749,19.7382903 C48.5118608,20.1702858 48.3416062,20.7293305 48.3416062,21.4154411 C48.3416062,22.0913871 48.5118608,22.6453496 48.8523749,23.0773452 C49.2233829,23.5499992 49.7366876,23.7863226 50.3923044,23.7863226 C51.0479212,23.7863226 51.5663081,23.5474581 51.9474806,23.0697218 C52.2981594,22.6377262 52.4734961,22.0837637 52.4734961,21.4078177 Z" id="path-1"></path>
        <path d="M57.0685488,30.4314193 L55.1872859,30.4314193 L55.1872859,17.8562219 L57.0685488,17.8562219 L57.0685488,18.7425057 C57.8099095,18.0011451 58.651592,17.6304703 59.5936217,17.6304703 C60.7140239,17.6304703 61.6365303,18.0429505 62.3611685,18.8679233 C63.096955,19.6873219 63.4648427,20.7213094 63.4648427,21.9699168 C63.4648427,23.1906535 63.099742,24.2079188 62.3695297,25.0217433 C61.6448914,25.8299936 60.7307462,26.2341127 59.6270664,26.2341127 C58.6738884,26.2341127 57.8210578,25.8522898 57.0685488,25.0886326 L57.0685488,30.4314193 Z M61.541774,21.978278 C61.541774,21.1978983 61.3299598,20.5624559 60.9063252,20.0719315 C60.4771164,19.5758331 59.9364329,19.3277875 59.2842585,19.3277875 C58.5930651,19.3277875 58.0328724,19.567472 57.6036636,20.046848 C57.1744548,20.5262241 56.9598536,21.1560925 56.9598536,21.9364721 C56.9598536,22.7001293 57.1744548,23.3299977 57.6036636,23.8260962 C58.0272983,24.3110464 58.5847039,24.5535179 59.2758973,24.5535179 C59.9280717,24.5535179 60.4659682,24.3082594 60.8896028,23.817735 C61.3243858,23.3272107 61.541774,22.7140645 61.541774,21.978278 Z M64.0701871,21.8695828 C64.0701871,20.6934392 64.4910284,19.692896 65.3327235,18.8679233 C66.1744187,18.0429505 67.2000451,17.6304703 68.4096335,17.6304703 C69.6247961,17.6304703 70.6559966,18.0457376 71.5032659,18.8762844 C72.3393869,19.7068313 72.7574412,20.7268837 72.7574412,21.9364721 C72.7574412,23.1572088 72.3365999,24.1800482 71.4949047,25.0050209 C70.6476354,25.8244196 69.6080738,26.2341127 68.3761889,26.2341127 C67.1554522,26.2341127 66.1326128,25.8160585 65.30764,24.9799374 C64.4826673,24.1549647 64.0701871,23.1181902 64.0701871,21.8695828 Z M65.9932558,21.9030274 C65.9932558,22.7168519 66.210644,23.3606554 66.645427,23.8344574 C67.0913582,24.3138334 67.6794212,24.5535179 68.4096335,24.5535179 C69.14542,24.5535179 69.733483,24.3166204 70.1738401,23.8428185 C70.6141972,23.3690166 70.8343724,22.7363612 70.8343724,21.9448333 C70.8343724,21.1533054 70.6141972,20.5206499 70.1738401,20.046848 C69.7279089,19.567472 69.1398459,19.3277875 68.4096335,19.3277875 C67.6905694,19.3277875 67.1080805,19.567472 66.6621493,20.046848 C66.2162181,20.5262241 65.9932558,21.1449444 65.9932558,21.9030274 Z M74.4413762,17.8562219 L76.5734742,22.5050316 L78.8727955,17.1120779 L81.1888392,22.5050316 L83.2958537,17.8562219 L85.4028681,17.8562219 L81.1386722,26.6103653 L78.8727955,21.3679127 L76.5818354,26.6103653 L72.3260006,17.8562219 L74.4413762,17.8562219 Z M92.830926,22.3712529 L86.9948304,22.3712529 C87.0449976,23.0401497 87.2623858,23.5724721 87.6470015,23.9682361 C88.0316172,24.3584259 88.5249212,24.5535179 89.1269283,24.5535179 C89.5951561,24.5535179 89.982553,24.4420367 90.2891308,24.2190711 C90.5901343,23.9961055 90.9329388,23.5836253 91.3175545,22.9816182 L92.9061765,23.867902 C92.6609143,24.2859625 92.4017207,24.6440957 92.1285878,24.9423122 C91.855455,25.2405287 91.562817,25.4857872 91.2506651,25.678095 C90.9385133,25.8704028 90.6012829,26.0111478 90.2389637,26.100334 C89.8766446,26.1895203 89.4836736,26.2341127 89.060039,26.2341127 C87.8448764,26.2341127 86.8694165,25.8439288 86.13363,25.0635491 C85.3978435,24.2775954 85.0299558,23.2352468 85.0299558,21.9364721 C85.0299558,20.6488457 85.3866954,19.6064971 86.1001853,18.8093951 C86.8192494,18.0234413 87.7724131,17.6304703 88.959705,17.6304703 C90.1581451,17.6304703 91.1057347,18.0122932 91.8025023,18.7759504 C92.4936956,19.5340335 92.8392871,20.5847432 92.8392871,21.9281109 L92.830926,22.3712529 Z M90.8994961,20.8327979 C90.6375115,19.8294526 90.004856,19.3277875 89.0015108,19.3277875 C88.7729711,19.3277875 88.5583699,19.3626254 88.3577008,19.4323021 C88.1570318,19.5019789 87.9744814,19.6023119 87.8100443,19.7333042 C87.6456072,19.8642965 87.5048622,20.0217636 87.3878053,20.2057102 C87.2707483,20.3896569 87.1815634,20.598684 87.1202479,20.8327979 L90.8994961,20.8327979 Z M93.8877734,17.8562219 L95.7690363,17.8562219 L95.7690363,18.5836435 C96.114633,18.2213244 96.4212061,17.9732789 96.6887649,17.8394995 C96.9618977,17.700146 97.285193,17.6304703 97.6586604,17.6304703 C98.1547589,17.6304703 98.6731462,17.792118 99.2138378,18.1154181 L98.3526374,19.8378188 C97.9958924,19.5814084 97.6475139,19.4532051 97.3074913,19.4532051 C96.2818495,19.4532051 95.7690363,20.2279989 95.7690363,21.7776099 L95.7690363,26 L93.8877734,26 L93.8877734,17.8562219 Z" id="path-2"></path>
    </defs>
    <g id="Page-1" stroke="none" stroke-width="1" fill="none" fill-rule="evenodd">
        <g id="frog-logo" transform="translate(-1.000000, 0.000000)">
            <path d="M45.2115385,12.4038462 L48.5384615,12.4038462 C48.75,12.4038462 48.9615385,12.5 49.0769231,12.6730769 L49.3269231,12.9807692 C49.4230769,13.0961538 49.4615385,13.25 49.4615385,13.4038462 L49.4615385,16.75 C49.4615385,17.1153846 49.2884615,17.4423077 49,17.6538462 L41.75,22.7307692 C41.5961538,22.8461538 41.4423077,22.9807692 41.3269231,23.1346154 C40.5576923,24.1538462 37.8846154,28.1538462 39.5192308,33.0576923 L42.7692308,44.6153846 C42.7884615,44.7115385 42.8846154,44.7884615 43,44.7884615 L43,44.7884615 C43.1346154,44.7884615 43.2307692,44.6730769 43.2307692,44.5576923 L43.0769231,41.0192308 C43.0769231,40.9230769 43.1923077,40.8846154 43.25,40.9423077 L44.1153846,41.9038462 C44.3461538,42.1730769 44.7884615,42.0384615 44.8461538,41.6923077 L44.8461538,41.6923077 C44.8653846,41.6153846 44.8461538,41.5192308 44.8076923,41.4615385 L43.7115385,39.0769231 C43.6923077,39.0384615 43.6923077,39 43.7115385,38.9615385 L43.7115385,38.9615385 C43.75,38.8461538 43.9230769,38.8076923 44,38.9230769 L44.4615385,39.5576923 C44.6538462,39.8076923 45.0576923,39.75 45.1538462,39.4423077 L45.1538462,39.4423077 C45.1923077,39.3461538 45.1730769,39.2307692 45.1153846,39.1346154 L43.8846154,36.9230769 C43.8461538,36.8461538 43.8461538,36.75 43.9038462,36.6923077 L43.9038462,36.6923077 C43.9615385,36.6153846 44.0769231,36.5961538 44.1538462,36.6538462 L44.1538462,36.6538462 C44.3846154,36.7884615 44.6730769,36.6730769 44.75,36.4230769 L44.7692308,36.3653846 C44.8076923,36.25 44.7884615,36.1153846 44.7115385,36 C44.1153846,35.1153846 41.2884615,30.9038462 41.2307692,29.2307692 C41.1730769,27.3653846 41.5192308,24.9615385 43.5384615,24.3461538 C45.5192308,23.7307692 52.6346154,21.4423077 54.7884615,14.3846154 C54.8461538,14.2115385 55.0192308,14.0961538 55.1923077,14.1153846 C56.1153846,14.2115385 58.8461538,14.4423077 60.8269231,13.8076923 C62.7692308,13.1923077 65.1923077,12.1153846 66.0961538,11.6923077 C66.2884615,11.5961538 66.5192308,11.6730769 66.6346154,11.8461538 C67.1346154,12.6538462 68.7692308,14.7115385 72.8269231,15.4230769 L76.3653846,15.4230769 C76.5384615,15.4230769 76.6730769,15.2884615 76.6730769,15.1153846 L76.6730769,15.1153846 C76.6730769,14.9615385 76.5384615,14.8269231 76.3846154,14.8076923 L75.0576923,14.75 C74.9807692,14.75 74.9230769,14.6538462 74.9615385,14.5769231 C75.1538462,14.1730769 75.9423077,13.1923077 78.9423077,13.1730769 C79.1153846,13.1730769 79.25,13.0384615 79.25,12.8653846 L79.25,12.8653846 C79.25,12.6923077 79.1153846,12.5576923 78.9423077,12.5576923 L77.1153846,12.5384615 C77.0384615,12.5384615 77,12.4230769 77.0769231,12.3846154 L78.8653846,11.25 C79.0769231,11.1153846 79.0961538,10.8269231 78.9230769,10.6538462 L78.9230769,10.6538462 C78.8076923,10.5384615 78.6346154,10.5 78.4807692,10.5769231 L73.9615385,12.9038462 C73.8846154,12.9423077 73.7884615,12.9615385 73.7115385,12.9423077 C73.1346154,12.8269231 70.8653846,12.3653846 69.6923077,12.3269231 C69.4615385,12.3269231 69.2692308,12.1346154 69.2692308,11.9038462 L69.25,11.0961538 C69.2307692,10.7884615 69.5384615,10.5769231 69.8269231,10.6730769 C70.8461538,11.0384615 73,11.7307692 75.1730769,11.9038462 C75.3269231,11.9230769 75.4615385,11.8269231 75.5192308,11.6923077 L75.5192308,11.6923077 C75.6153846,11.4807692 75.4807692,11.2307692 75.25,11.1923077 L74.5,11.0961538 C74.4230769,11.0769231 74.3653846,11.0192308 74.3653846,10.9423077 L74.3653846,10.9423077 C74.3653846,10.8653846 74.4230769,10.8076923 74.4807692,10.7884615 L76.9423077,10.2115385 C77.1153846,10.1730769 77.2307692,10 77.1923077,9.80769231 L77.1923077,9.80769231 C77.1538462,9.65384615 77.0192308,9.53846154 76.8653846,9.53846154 L74.9230769,9.53846154 C74.8846154,9.53846154 74.8269231,9.53846154 74.7884615,9.51923077 L74.5769231,9.42307692 L76.0576923,8.55769231 C76.2307692,8.46153846 76.2692308,8.23076923 76.1346154,8.07692308 L76.1346154,8.07692308 C76.0384615,7.96153846 75.8846154,7.94230769 75.75,8 L73.3653846,9.26923077 C73.3076923,9.28846154 73.25,9.30769231 73.1923077,9.30769231 L70.1346154,9.19230769 C70.0961538,9.19230769 70.0961538,9.13461538 70.1346154,9.13461538 C71.4807692,8.88461538 77.5576923,7.55769231 76.5,4.48076923 C76.4807692,4.40384615 76.4423077,4.34615385 76.3846154,4.28846154 C75.3653846,3.21153846 73,2.48076923 73,2.48076923 C73,2.48076923 73.2692308,0.25 71.5576923,0.134615385 C69.8461538,0.0192307692 69.6346154,1.55769231 69.6346154,1.55769231 C69.6346154,1.55769231 65.5769231,1.46153846 64.3269231,2.44230769 C64.3269231,2.44230769 58.5,2 56.5384615,2.65384615 C54.5769231,3.30769231 50.7884615,7.21153846 50.7884615,7.21153846 C50.7884615,7.21153846 43.9230769,7.03846154 40.0384615,12.4807692 C37.1923077,16.4807692 36.4423077,17.9807692 36.2307692,18.4807692 C36.1538462,18.6538462 36,18.7692308 35.8076923,18.7692308 C35.5384615,18.7884615 35.0384615,18.7692308 34.1346154,18.6923077 C32.3846154,18.5192308 26.8653846,16.5769231 25.4038462,15.0961538 C25.3076923,15 25.1346154,15.0769231 25.1346154,15.2115385 L25.1346154,15.2115385 C25.1346154,15.3269231 25,15.4038462 24.9038462,15.3461538 L22.8076923,14.1730769 L22.4615385,14.9423077 L20.5961538,14.3461538 C20.3653846,14.2692308 20.1538462,14.4423077 20.1538462,14.6730769 L20.1538462,14.6730769 C20.1538462,14.7884615 20.2115385,14.8846154 20.3076923,14.9615385 L21.2115385,15.5192308 C21.3076923,15.5769231 21.3461538,15.6730769 21.3461538,15.7692308 L21.3461538,15.7692308 C21.3269231,15.9038462 21.2115385,16.0192308 21.0769231,16.0192308 L18.3846154,16.0961538 C18.2115385,16.0961538 18.0769231,16.2307692 18.0769231,16.4038462 L18.0769231,16.4038462 C18.0769231,16.5384615 18.1538462,16.6538462 18.2884615,16.6923077 C19.7307692,17.2307692 28.3846154,20.3076923 36.0192308,20.4615385 C36.6923077,20.4807692 37.3653846,20.2307692 37.8846154,19.7692308 C41.2115385,16.8076923 43.6153846,13.8269231 44.4423077,12.7307692 C44.5576923,12.5576923 44.8846154,12.4038462 45.2115385,12.4038462 Z" id="Path" fill="#FFFFFF"></path>
            <g id="bullfrog" fill-rule="nonzero">
                <use fill="#000000" xlink:href="#path-1"></use>
                <use fill="#FFFFFF" xlink:href="#path-1"></use>
            </g>
            <g id="power" fill-rule="nonzero">
                <use fill="#000000" xlink:href="#path-2"></use>
                <use fill="#FFFFFF" xlink:href="#path-2"></use>
            </g>
            <circle id="Oval" stroke="#FFFFFF" stroke-width="0.5" fill-rule="nonzero" cx="102.442308" cy="18.4423077" r="1.44230769"></circle>
            <path d="M102.594218,18.6068413 C102.678376,18.6068413 102.744951,18.5900098 102.793943,18.5563463 C102.842936,18.5226829 102.867431,18.4619693 102.867431,18.3742038 C102.867431,18.2798258 102.833167,18.2155055 102.764638,18.1812409 C102.727969,18.1632069 102.678977,18.15419 102.617662,18.15419 L102.179437,18.15419 L102.179437,18.6068413 L102.594218,18.6068413 Z M102,18 L102.613153,18 C102.714144,18 102.797399,18.0147276 102.862923,18.0441831 C102.987358,18.1006897 103.049574,18.2049848 103.049574,18.3570716 C103.049574,18.4364212 103.033193,18.5013426 103.000432,18.5518379 C102.96767,18.6023331 102.921834,18.642909 102.862923,18.6735668 C102.91462,18.6946065 102.953543,18.7222582 102.979693,18.7565228 C103.005842,18.7907874 103.020419,18.8463914 103.023425,18.9233365 L103.029737,19.1009706 C103.03154,19.1514658 103.035748,19.1890361 103.04236,19.2136826 C103.053181,19.2557619 103.072417,19.2828126 103.100069,19.2948352 L103.100069,19.3245912 L102.880055,19.3245912 C102.874044,19.3131696 102.869235,19.2984421 102.865628,19.2804081 C102.862021,19.2623741 102.859016,19.2275089 102.856611,19.1758114 L102.845791,18.9548959 C102.841583,18.8683327 102.809423,18.8103241 102.749309,18.7808686 C102.715045,18.764638 102.661244,18.7565228 102.587906,18.7565228 L102.179437,18.7565228 L102.179437,19.3245912 L102,19.3245912 L102,18 Z" id="R" fill="#FFFFFF" fill-rule="nonzero"></path>
        </g>
    </g>
</svg>