<?xml version="1.0" encoding="utf-8"?>
<!-- Generator: Adobe Illustrator 25.2.3, SVG Export Plug-In . SVG Version: 6.00 Build 0)  -->
<svg version="1.1" id="Layer_1" xmlns="http://www.w3.org/2000/svg" xmlns:xlink="http://www.w3.org/1999/xlink" x="0px" y="0px"
	 viewBox="0 0 185.69 52.33" style="enable-background:new 0 0 185.69 52.33;" xml:space="preserve">
<style type="text/css">
	.st0{fill:#CC0000;}
	.st1{fill:#444444;}
</style>
<g>
	<g>
		<g>
			<path class="st0" d="M164.26,18.89h-5.22V4.22h5.22V0h-5.28c-2.29,0-4.16,1.87-4.16,4.17v14.77c0,2.29,1.88,4.17,4.16,4.17h5.28
				V18.89z"/>
		</g>
		<g>
			<path class="st0" d="M168.48,4.22h5.22v14.67h-5.22v4.22h5.28c2.29,0,4.16-1.87,4.16-4.17V4.17c0-2.29-1.88-4.17-4.16-4.17h-5.28
				V4.22z"/>
			<path class="st0" d="M11.7,31.54c-6.28,0-10.93-3.31-11.7-8.63h6.42c0.86,2.11,3.4,2.88,5.27,2.88c2.54,0,4.46-0.77,4.46-2.21
				c0-1.39-0.86-1.97-5.18-2.64c-4.41-0.67-10.31-1.87-10.31-7.38c0-3.88,3.4-7.91,10.55-7.91c5.66,0,9.88,3.07,10.69,7.72h-6.57
				c-0.38-1.15-1.77-2.06-4.12-2.06c-2.92,0-4.12,1.05-4.12,1.97c0,1.29,1.82,1.73,4.89,2.2c6.14,1.01,10.55,2.35,10.55,7.72
				C22.53,28.09,18.02,31.54,11.7,31.54"/>
		</g>
		<g>
			<path class="st0" d="M37.25,30.92c-7.24,0.77-11.07-3.59-11.07-10.35v-7.19H23.2V7.77h2.97V0h6.33v7.77h4.75v5.61H32.5v7.24
				c0,3.45,1.58,4.75,4.75,4.55V30.92z"/>
			<path class="st0" d="M79.99,31.49c-2.83,0-5.37-1.1-7.24-2.92v8.68h-6.38V6.28h6.09v2.59c1.92-1.97,4.55-3.16,7.53-3.16
				c6.47,0,11.74,5.56,11.74,12.85C91.74,25.89,86.46,31.49,79.99,31.49 M79.08,11.6c-3.5,0-6.33,3.12-6.33,6.95
				c0,3.88,2.83,7.05,6.33,7.05c3.5,0,6.33-3.02,6.33-7.05C85.41,14.57,82.58,11.6,79.08,11.6"/>
			<rect x="93.8" class="st0" width="6.33" height="30.97"/>
			<path class="st0" d="M108.61,21.09c0.81,3.02,3.21,4.89,6.18,4.89c2.11,0,4.17-0.91,5.22-2.88h6.76
				c-1.44,5.03-5.8,8.44-11.94,8.44c-6.95,0-12.66-5.75-12.66-12.9s5.71-12.99,12.66-12.99c7.29,0,13.33,5.66,12.42,15.44H108.61z
				 M120.98,15.92c-0.77-2.88-3.16-4.7-6.18-4.7c-2.88,0-5.18,1.82-6.09,4.7H120.98z"/>
			<path class="st0" d="M140.05,15.48c-3.07-0.48-4.89-0.91-4.89-2.2c0-0.91,1.2-1.97,4.12-1.97c2.35,0,3.74,0.91,4.12,2.06h6.57
				c-0.81-4.65-5.03-7.72-10.69-7.72c-7.14,0-10.55,4.03-10.55,7.91c0,5.51,5.9,6.71,10.31,7.38c4.32,0.67,5.18,1.25,5.18,2.64
				c0,1.44-1.92,2.2-4.46,2.2c-1.81,0-4.25-0.72-5.18-2.68h-6.48c0.85,5.21,5.46,8.44,11.66,8.44c6.33,0,10.83-3.45,10.83-8.34
				C150.6,17.83,146.19,16.49,140.05,15.48"/>
			<path class="st0" d="M49.85,5.75c2.83,0,5.37,1.1,7.24,2.92v-2.4h6.38v24.69h-6.09v-2.59c-1.92,1.97-4.55,3.16-7.53,3.16
				c-6.47,0-11.74-5.56-11.74-12.85C38.1,11.36,43.38,5.75,49.85,5.75 M50.76,25.65c3.5,0,6.33-3.12,6.33-6.95
				c0-3.88-2.83-7.05-6.33-7.05c-3.5,0-6.33,3.02-6.33,7.05C44.43,22.67,47.26,25.65,50.76,25.65"/>
		</g>
		<g>
			<path class="st0" d="M180.69,1.84h2v0.65h-0.65v1.73h-0.69V2.49h-0.65V1.84z M185.69,1.84v2.38h-0.69V2.94l-0.65,0.82l-0.65-0.82
				v1.28H183V1.84h0.62l0.73,0.96l0.73-0.96H185.69z"/>
		</g>
	</g>
	<g>
		<path class="st1" d="M38.93,41.52h4.68c2.81,0,4.16,1.93,4.16,4.07c0,2.24-1.35,4.13-4.16,4.13h-1.96v2.41h-2.72V41.52z M41.64,44
			v3.25h1.81c1.14,0,1.56-0.71,1.56-1.65c0-0.84-0.42-1.6-1.56-1.6H41.64z"/>
		<path class="st1" d="M56.03,41.52c2.72,0,3.97,1.77,3.97,3.88c0,1.48-0.67,2.87-2.09,3.52l2.3,3.21h-3.25l-2.01-2.84h-1.39v2.84
			h-2.71v-10.6H56.03z M53.56,44v2.83h2.32c1.09,0,1.5-0.67,1.5-1.4c0-0.82-0.41-1.43-1.5-1.43H53.56z"/>
		<path class="st1" d="M68.44,41.32c3.1,0,5.63,2.47,5.63,5.51c0,3.03-2.53,5.51-5.63,5.51c-3.06,0-5.63-2.47-5.63-5.51
			C62.81,43.79,65.38,41.32,68.44,41.32z M68.44,49.71c1.63,0,2.88-1.28,2.88-2.88c0-1.6-1.25-2.88-2.88-2.88
			c-1.59,0-2.88,1.28-2.88,2.88C65.56,48.43,66.85,49.71,68.44,49.71z"/>
		<path class="st1" d="M77.24,41.52h7.87v2.64h-5.17v1.88h4.34v2.46h-4.34v3.63h-2.71V41.52z"/>
		<path class="st1" d="M88.33,41.52h8.14v2.64h-5.42v1.52h4.46v2.46h-4.46v1.36h5.42v2.62h-8.14V41.52z"/>
		<path class="st1" d="M102.07,48.95v0.07c0,0.41,0.56,0.96,1.79,0.96c1.02,0,1.35-0.34,1.35-0.65c0-0.45-0.53-0.72-1.81-1.16
			c-1.69-0.56-3.9-1.37-3.9-3.56c0-2.03,1.73-3.29,4.15-3.29c2.47,0,4.34,1.32,4.34,3.43v0.15h-2.65v-0.1
			c0-0.52-0.53-1.13-1.63-1.13c-0.92,0-1.29,0.37-1.29,0.72c0,0.42,0.49,0.64,1.75,1.07c1.47,0.52,3.97,1.39,3.97,3.71
			c0,2.07-1.79,3.15-4.21,3.15c-2.54,0-4.5-1.18-4.5-3.26v-0.12H102.07z"/>
		<path class="st1" d="M113.61,48.95v0.07c0,0.41,0.56,0.96,1.79,0.96c1.02,0,1.35-0.34,1.35-0.65c0-0.45-0.53-0.72-1.81-1.16
			c-1.69-0.56-3.9-1.37-3.9-3.56c0-2.03,1.73-3.29,4.15-3.29c2.47,0,4.34,1.32,4.34,3.43v0.15h-2.65v-0.1
			c0-0.52-0.53-1.13-1.63-1.13c-0.92,0-1.29,0.37-1.29,0.72c0,0.42,0.49,0.64,1.75,1.07c1.47,0.52,3.97,1.39,3.97,3.71
			c0,2.07-1.79,3.15-4.21,3.15c-2.54,0-4.5-1.18-4.5-3.26v-0.12H113.61z"/>
		<path class="st1" d="M125.65,41.52v10.6h-2.72v-10.6H125.65z"/>
		<path class="st1" d="M134.45,41.32c3.1,0,5.63,2.47,5.63,5.51c0,3.03-2.53,5.51-5.63,5.51c-3.06,0-5.63-2.47-5.63-5.51
			C128.82,43.79,131.39,41.32,134.45,41.32z M134.45,49.71c1.63,0,2.88-1.28,2.88-2.88c0-1.6-1.25-2.88-2.88-2.88
			c-1.59,0-2.88,1.28-2.88,2.88C131.57,48.43,132.86,49.71,134.45,49.71z"/>
		<path class="st1" d="M143.26,52.13v-10.6h2.31l4.73,5.93v-5.93H153v10.6h-2.3l-4.73-5.91v5.91H143.26z"/>
		<path class="st1" d="M162.85,41.52l4.28,10.6h-2.96l-0.58-1.55h-4.17l-0.58,1.55h-2.96l4.3-10.6H162.85z M161.51,45l-1.17,3.11
			h2.32L161.51,45z"/>
		<path class="st1" d="M170,41.52h2.71v7.98h5.08v2.62H170V41.52z"/>
	</g>
</g>
</svg>
